<svg width="25" height="28" viewBox="0 0 25 28" fill="none" xmlns="http://www.w3.org/2000/svg">
<g clip-path="url(#clip0_13979_128509)">
<path d="M0 20.9695V7.03878C0 7.00961 0.0145871 6.98773 0.0364678 6.97314L12.0927 0.00778178C12.1146 -0.00680535 12.1438 -0.00680535 12.1657 0.00778178L24.2219 6.96585C24.2438 6.98043 24.2584 7.00231 24.2584 7.03149V20.9622C24.2584 20.9914 24.2438 21.0133 24.2219 21.0278L12.1657 27.9932C12.1438 28.0078 12.1146 28.0078 12.0927 27.9932L0.0364678 21.0278C0.0145871 21.0133 0 20.9914 0 20.9695Z" fill="#DC150B"/>
<path d="M8.07398 11.6928C8.06668 11.6855 8.0521 11.6782 8.0448 11.6855L4.0844 13.9757H4.06981C4.05522 13.9757 4.04793 13.9684 4.04793 13.9538V9.33699C4.04793 9.32969 4.05522 9.3224 4.06251 9.31511L4.06252 9.31511L12.1 4.6764C12.1073 4.66911 12.1146 4.66911 12.1219 4.6764L16.1188 6.98117L16.1261 6.98846C16.1334 6.99575 16.1261 7.01034 16.1188 7.01763L12.1146 9.32969C12.1073 9.33699 12.1 9.34428 12.1 9.35158V23.3042V23.3188C12.0927 23.326 12.0781 23.3333 12.0709 23.326L8.08127 21.0286C8.08127 21.0213 8.07398 21.014 8.07398 21.0067V11.7074V11.6928Z" fill="white"/>
<path d="M16.1771 20.9994C16.1625 20.9994 16.148 20.9848 16.148 20.9702V11.6928C16.148 11.6782 16.1552 11.6709 16.1625 11.6636L20.1667 9.35158C20.174 9.34428 20.174 9.34428 20.1813 9.34428C20.1959 9.34428 20.2105 9.35887 20.2105 9.37346V18.6509C20.2105 18.6655 20.2032 18.6728 20.1959 18.68L16.1917 20.9921C16.1844 20.9994 16.1844 20.9994 16.1771 20.9994Z" fill="white"/>
</g>
<defs>
<clipPath id="clip0_13979_128509">
<rect width="24.2584" height="28" fill="white"/>
</clipPath>
</defs>
</svg>
